<svg id="Layer_1" data-name="Layer 1" xmlns="http://www.w3.org/2000/svg" viewBox="0 0 73.8 64.47"><defs><style>.cls-1{fill:#0f1027;}</style></defs><title>logo</title><path class="cls-1" d="M119.64,307.13a228.39,228.39,0,0,1,18.87-53.36H134.2c7.68,11.38,7.87,25.22,7.85,38.47l4.91-.66a52.2,52.2,0,0,1,.68-19.93,51.11,51.11,0,0,1,3.55-10.26,38.22,38.22,0,0,1,1.92-3.64,12.46,12.46,0,0,1,1.79-2.54q1.51-2.67,3.27-.44c2.79,1.47,2.52,8.36,2.92,11.44l1.4,10.64,2.93,22.25c0.41,3.14,5.42,3.19,5,0L166,265.26c-0.7-5.33-.25-17.94-8.78-16.89-7.4.91-11,11.26-13,17.21a57.87,57.87,0,0,0-2,27.34c0.44,2.83,4.91,2.08,4.91-.66,0-14.11-.37-28.9-8.53-41-1-1.45-3.42-1.79-4.32,0a233.74,233.74,0,0,0-19.38,54.55c-0.69,3.14,4.13,4.48,4.82,1.33h0Z" transform="translate(-114.75 -244.46)"/><path class="cls-1" d="M182.41,249a235.37,235.37,0,0,0,1.13,34c0.33,3.17,5.34,3.2,5,0a235.37,235.37,0,0,1-1.13-34c0.13-3.22-4.87-3.21-5,0h0Z" transform="translate(-114.75 -244.46)"/><path class="cls-1" d="M184.83,299.26c3.22,0,3.22-5,0-5s-3.22,5,0,5h0Z" transform="translate(-114.75 -244.46)"/><path class="cls-1" d="M183.5,244.53l-7.16,1.64a2.51,2.51,0,0,0-1.84,2.41c0.58,5.38,2.92,10.31,4.36,15.5a105.15,105.15,0,0,1,3.41,19c0.28,3.18,5.29,3.21,5,0a114.58,114.58,0,0,0-2.67-16.8c-1.42-5.86-4.45-11.7-5.1-17.69L177.67,251l7.16-1.64c3.14-.72,1.81-5.54-1.33-4.82h0Z" transform="translate(-114.75 -244.46)"/></svg>