<svg id="Layer_1" data-name="Layer 1" xmlns="http://www.w3.org/2000/svg" viewBox="0 0 289.7 84.65"><defs><style>.cls-1{fill:#231f20;}</style></defs><title>studio</title><path class="cls-1" d="M105.81,587.44c10.64,2.26,18.44-6.21,25.16-13.24,7.21-7.56,13.23-15.89,16.92-25.72l-9.82-1.33a45.75,45.75,0,0,0,2,10.33c0.94,3.14,2.41,6.81,1.87,10.18-1.11,6.94-9.73,6.46-15.08,6.23v10c18.75-1.31,39-5.63,51.37-21.05,11.9-14.8,15.61-36.23,15.26-54.74-0.1-5.38-9-7.11-9.82-1.33a151.81,151.81,0,0,0-1.16,33.15c0.76,9.26,2,20.43,7.9,28,5.38,6.92,14.28,7,19.27-.36,5.67-8.33,9.1-19.1,11.62-28.76l-9.82-1.33c0.08,8.47-1.21,18.36,1.89,26.45,2.48,6.49,8.95,11.8,16.21,10.33,15.53-3.14,18.09-27.25,17.57-39.72-0.26-6.41-9.86-6.46-10,0-0.11,5.24-.23,10.49-0.3,15.74-0.06,4.32-.23,9,1.93,12.9,4.8,8.71,12.46,3.56,17.3-2,4.23-4.82-2.81-11.92-7.07-7.07a31.49,31.49,0,0,1-2.24,2.42q-2.6,1.94.34,0.59c0-2.26-.29-4.6-0.26-6.89,0.06-5.25.19-10.49,0.3-15.74h-10a56.72,56.72,0,0,1-1.46,16.15c-1,4.13-2.45,10.4-6.29,13-9.48,6.32-7.89-22.45-7.92-26.17-0.05-5.57-8.38-6.87-9.82-1.33A110.06,110.06,0,0,1,204.1,557c-0.89,1.8-2.49,6.59-4.63,5.93-2.53-.77-3.91-6.84-4.51-8.91-4.07-14.13-3.61-30.12-1.63-44.57l-9.82-1.33c0.29,15.84-2.45,34.48-12.24,47.5-10.28,13.68-28.35,17.18-44.4,18.3-6.39.45-6.48,9.71,0,10,8.11,0.36,17.93-.5,22.65-8.16,5.88-9.53-.82-18.85-1.47-28.58a5,5,0,0,0-9.82-1.33,59.91,59.91,0,0,1-12.05,18.84c-3.69,4.09-11.46,14.48-17.72,13.15s-9,8.3-2.66,9.64h0Z" transform="translate(-102.22 -503.16)"/><path class="cls-1" d="M171.25,545.51q12.63,0.23,25.25-.15c6.42-.19,6.45-10.19,0-10q-12.63.38-25.25,0.15c-6.44-.12-6.44,9.88,0,10h0Z" transform="translate(-102.22 -503.16)"/><path class="cls-1" d="M275.59,526.56a354.48,354.48,0,0,0,1.08,44.08c0.55,6.32,9.87,6.53,10,0,0.15-7.24-1.85-15.57-9.55-18.17a11.08,11.08,0,0,0-14.56,9.37c-2,16,25,20.77,25.74,3.44L279,567.79c12.37,18.11,35.55-1.42,41.45-15.3L311.11,550c0.57,11.94,8.77,22.92,20.59,25.9s25.78-2.69,31.83-13.49c3-5.27,3.89-12.09.32-17.3-3.12-4.56-9.2-6.3-14.45-5.1-11.76,2.7-19.16,20.92-11,30.5a11.29,11.29,0,0,0,16.79.68c5.71-5.54,8.32-14.73,9.82-22.28l-6.15,3.49c12,4.27,22.6-2.91,31.41-10.33,4.93-4.15-2.17-11.19-7.07-7.07-6.13,5.15-13.27,10.75-21.68,7.75a5,5,0,0,0-6.15,3.49,50.41,50.41,0,0,1-4.77,14.3c-0.57,1.06-2.06,4.37-3.66,4.2-2.33-.25-1.81-4.67-1.61-6,0.54-3.58,2.66-8.56,6.76-9.09,5-.65,4.49,4.61,2.84,7.71-8.28,15.52-32.95,10.15-33.79-7.37-0.21-4.45-7.23-7.45-9.32-2.52a34.65,34.65,0,0,1-10,13.13c-3.36,2.8-10.64,7.29-14.13,2.18a5,5,0,0,0-9.32,2.52c-0.16,3.74-8.82-1.09-5.26-3.4,3.27-2.12,3.65,7.67,3.63,8.76h10a354.48,354.48,0,0,1-1.08-44.08c0.24-6.44-9.76-6.43-10,0h0Z" transform="translate(-102.22 -503.16)"/><path class="cls-1" d="M316.66,531.86c6.43,0,6.45-10,0-10s-6.45,10,0,10h0Z" transform="translate(-102.22 -503.16)"/></svg>